<?xml version="1.0" encoding="UTF-8"?>
<svg id="_图层_2" data-name="图层 2" xmlns="http://www.w3.org/2000/svg" viewBox="0 0 63.553 52.532">
  <defs>
    <style>
      .cls-1, .cls-2 {
        fill: none;
        stroke: #000;
        stroke-miterlimit: 10;
      }

      .cls-2 {
        stroke-width: 2px;
      }
    </style>
  </defs>
  <g id="_图层_1-2" data-name="图层 1">
    <path class="cls-2" d="M20.848,4.881c3.278-1.678,6.992-2.625,10.928-2.625,13.261,0,24.011,10.75,24.011,24.011s-10.75,24.011-24.011,24.011S7.766,39.527,7.766,26.266c0-5.14,1.615-9.903,4.366-13.809"/>
    <g>
      <polygon points="12.131 12.958 0 12.958 0 0 21.349 0 21.349 4.88 20.349 4.88 20.349 1 1 1 1 11.958 12.131 11.958 12.131 12.958"/>
      <rect x="7.299" y=".5" width=".75" height="11.958"/>
      <rect x="13.299" y=".5" width=".75" height="9.528"/>
    </g>
    <g>
      <polygon points="63.553 12.958 51.421 12.958 51.421 11.958 62.553 11.958 62.553 1 43.204 1 43.204 4.88 42.204 4.88 42.204 0 63.553 0 63.553 12.958"/>
      <rect x="55.504" y=".5" width=".75" height="11.958"/>
      <rect x="49.504" y=".5" width=".75" height="9.528"/>
    </g>
    <g>
      <polygon points="63.553 52.532 42.204 52.532 42.204 47.651 43.204 47.651 43.204 51.532 62.553 51.532 62.553 40.574 51.421 40.574 51.421 39.574 63.553 39.574 63.553 52.532"/>
      <rect x="55.504" y="40.074" width=".75" height="11.958"/>
      <rect x="49.504" y="42.504" width=".75" height="9.528"/>
    </g>
    <g>
      <polygon points="21.349 52.532 0 52.532 0 39.574 12.131 39.574 12.131 40.574 1 40.574 1 51.532 20.349 51.532 20.349 47.651 21.349 47.651 21.349 52.532"/>
      <rect x="7.299" y="40.074" width=".75" height="11.958"/>
      <rect x="13.299" y="42.504" width=".75" height="9.528"/>
    </g>
    <path class="cls-2" d="M16.674,7.599c1.288-1.043,2.686-1.956,4.174-2.718"/>
    <path class="cls-2" d="M12.131,12.457c1.283-1.822,2.814-3.458,4.543-4.859"/>
    <line class="cls-1" x1="10.674" y1="37.729" x2="10.674" y2="46.053"/>
    <line class="cls-1" x1="10.674" y1="6.479" x2="10.674" y2="14.802"/>
    <line class="cls-1" x1="52.879" y1="37.729" x2="52.879" y2="46.053"/>
    <line class="cls-1" x1="52.879" y1="6.479" x2="52.879" y2="14.802"/>
    <rect class="cls-1" x="41.957" y="24.088" width="10.771" height="4.356" rx="2.178" ry="2.178" transform="translate(73.609 -21.077) rotate(90)"/>
  </g>
</svg>